<svg xmlns="http://www.w3.org/2000/svg" viewBox="0 0 630 430" class="svg-logo" width="315" height="215" style="height: auto;"><rect rx="10" ry="10" width="100%" height="100%" fill="rgba(47, 63, 59, 1.0)"></rect><g data-element="wrapper" transform="translate(21.857421103569664 14.918561769104109) scale(0.9306114066553444)"><g data-element="container" transform="translate(164.02397260273975 64.02397260273975) scale(0.5032534246575342)"><g><path id="fill_x5F_1_1_" fill="transparent" d="M300,6.46c162.118,0,293.54,131.422,293.54,293.54S462.118,593.54,300,593.54
	S6.46,462.118,6.46,300S137.882,6.46,300,6.46z"></path>
<path id="frame_x5F_1" d="M300,0C134.578,0,0,134.578,0,300s134.578,300,300,300s300-134.578,300-300S465.422,0,300,0z M300,587.078
	C141.705,587.078,12.922,458.295,12.922,300S141.705,12.922,300,12.922S587.078,141.705,587.078,300S458.295,587.078,300,587.078z
	 M132.85,82.807c1.104,1.401,0.868,3.432-0.533,4.54c-3.372,2.659-6.675,5.401-9.915,8.221c-0.612,0.53-1.366,0.792-2.12,0.792
	c-0.902,0-1.798-0.375-2.439-1.11c-1.17-1.347-1.028-3.385,0.319-4.559c3.315-2.883,6.701-5.688,10.148-8.417
	C129.714,81.17,131.739,81.41,132.85,82.807z M122.717,504.71c1.347,1.17,1.492,3.211,0.325,4.559
	c-0.64,0.735-1.539,1.114-2.442,1.114c-0.751,0-1.505-0.259-2.117-0.789c-3.322-2.883-6.577-5.843-9.761-8.877
	c-1.29-1.23-1.338-3.278-0.107-4.568c1.23-1.29,3.275-1.334,4.568-0.107C116.291,499.006,119.471,501.896,122.717,504.71z
	 M95.388,477.397c1.17,1.347,1.025,3.385-0.322,4.555c-0.609,0.53-1.366,0.792-2.117,0.792c-0.902,0-1.801-0.375-2.439-1.114
	c-2.883-3.319-5.685-6.704-8.407-10.158c-1.104-1.401-0.864-3.432,0.536-4.536c1.407-1.101,3.436-0.861,4.536,0.536
	C89.836,470.845,92.574,474.154,95.388,477.397z M154.598,532.364c-0.618,0.959-1.659,1.48-2.719,1.48
	c-0.599,0-1.205-0.167-1.748-0.514c-3.7-2.388-7.344-4.861-10.921-7.414c-1.451-1.038-1.789-3.057-0.754-4.508
	c1.038-1.451,3.06-1.779,4.508-0.754c3.495,2.495,7.051,4.912,10.669,7.243C155.131,528.865,155.563,530.865,154.598,532.364z
	 M78.435,138.673c1.454,1.038,1.792,3.054,0.757,4.505c-2.495,3.499-4.906,7.06-7.234,10.679c-0.618,0.959-1.656,1.483-2.719,1.483
	c-0.599,0-1.205-0.167-1.745-0.514c-1.502-0.965-1.934-2.962-0.968-4.464c2.385-3.707,4.852-7.35,7.404-10.931
	C74.968,137.973,76.99,137.645,78.435,138.673z M103.663,108.811c1.293,1.23,1.344,3.275,0.114,4.568
	c-2.962,3.111-5.849,6.294-8.663,9.543c-0.637,0.738-1.54,1.117-2.442,1.117c-0.751,0-1.505-0.259-2.114-0.789
	c-1.35-1.167-1.495-3.208-0.328-4.555c2.877-3.325,5.833-6.584,8.865-9.77C100.334,107.634,102.375,107.59,103.663,108.811z
	 M165.399,61.194c0.899,1.543,0.372,3.517-1.17,4.413c-3.71,2.158-7.366,4.404-10.966,6.732c-0.543,0.35-1.148,0.517-1.751,0.517
	c-1.06,0-2.098-0.521-2.716-1.476c-0.968-1.495-0.539-3.495,0.959-4.467c3.682-2.385,7.426-4.682,11.231-6.89
	C162.516,59.128,164.5,59.642,165.399,61.194z M238.03,32.884c0.423,1.735-0.637,3.483-2.369,3.909
	c-4.186,1.025-8.335,2.142-12.439,3.36c-0.306,0.092-0.615,0.132-0.918,0.132c-1.394,0-2.681-0.909-3.098-2.312
	c-0.505-1.713,0.47-3.508,2.18-4.016c4.205-1.243,8.448-2.391,12.736-3.442C235.853,30.096,237.604,31.152,238.03,32.884z
	 M225.925,564.011c-0.413,1.41-1.704,2.322-3.101,2.322c-0.3,0-0.606-0.041-0.909-0.129c-4.243-1.246-8.445-2.59-12.603-4.035
	c-1.685-0.584-2.577-2.426-1.991-4.111c0.58-1.685,2.42-2.587,4.11-1.991c4.057,1.407,8.158,2.719,12.3,3.934
	C225.446,560.507,226.427,562.302,225.925,564.011z M200.685,44.437c0.666,1.653-0.136,3.536-1.789,4.205
	c-3.981,1.606-7.915,3.303-11.802,5.092c-0.438,0.202-0.896,0.297-1.347,0.297c-1.224,0-2.394-0.697-2.937-1.88
	c-0.748-1.621-0.038-3.539,1.584-4.284c3.981-1.833,8.01-3.574,12.086-5.218C198.117,41.992,200.016,42.78,200.685,44.437z
	 M264.216,571.854c-0.23,1.612-1.612,2.773-3.196,2.773c-0.152,0-0.306-0.01-0.461-0.032c-4.369-0.628-8.707-1.353-13.007-2.177
	c-1.751-0.338-2.899-2.029-2.565-3.782c0.334-1.751,2.022-2.902,3.783-2.565c4.199,0.804,8.436,1.517,12.704,2.126
	C263.242,568.45,264.469,570.087,264.216,571.854z M33.723,222.18c1.243-4.24,2.584-8.442,4.019-12.6
	c0.581-1.685,2.429-2.577,4.107-2c1.688,0.584,2.584,2.423,2,4.107c-1.404,4.063-2.713,8.164-3.924,12.31
	c-0.413,1.407-1.7,2.322-3.101,2.322c-0.3,0-0.606-0.041-0.909-0.129C34.206,225.689,33.222,223.893,33.723,222.18z M25.367,260.835
	c0.618-4.369,1.341-8.707,2.164-13.01c0.334-1.757,2.022-2.899,3.779-2.568c1.754,0.338,2.902,2.029,2.568,3.779
	c-0.804,4.202-1.508,8.439-2.114,12.707c-0.23,1.612-1.612,2.776-3.196,2.776c-0.151,0-0.303-0.01-0.457-0.032
	C26.345,264.239,25.118,262.601,25.367,260.835z M570.81,257.014c1.751-0.265,3.407,0.965,3.663,2.729
	c0.634,4.335,1.167,8.701,1.593,13.095c0.174,1.776-1.126,3.353-2.902,3.527c-0.104,0.009-0.211,0.016-0.316,0.016
	c-1.644,0-3.05-1.249-3.211-2.918c-0.42-4.287-0.94-8.552-1.555-12.786C567.822,258.91,569.046,257.27,570.81,257.014z
	 M559.775,222.957c-0.508-1.71,0.467-3.508,2.18-4.016c1.722-0.511,3.508,0.47,4.016,2.18c1.246,4.202,2.398,8.448,3.451,12.729
	c0.426,1.735-0.631,3.483-2.363,3.909c-0.262,0.066-0.521,0.095-0.776,0.095c-1.451,0-2.773-0.984-3.133-2.458
	C562.119,231.209,560.996,227.064,559.775,222.957z M25.843,303.369c-1.786,0-3.234-1.309-3.234-3.095
	c0-0.038,0.003-0.35,0.006-0.385c-0.003-4.215,0.095-8.518,0.293-12.795c0.082-1.782,1.656-3.208,3.375-3.079
	c1.782,0.082,3.161,1.593,3.079,3.376c-0.192,4.183-0.29,8.385-0.29,12.609C29.073,301.785,27.625,303.369,25.843,303.369z
	 M29.108,342.452c-0.155,0.025-0.312,0.035-0.464,0.035c-1.58,0-2.962-1.161-3.196-2.77c-0.625-4.334-1.148-8.7-1.565-13.098
	c-0.17-1.776,1.133-3.353,2.909-3.521c1.808-0.205,3.353,1.132,3.521,2.909c0.41,4.29,0.921,8.555,1.533,12.789
	C32.099,340.56,30.875,342.2,29.108,342.452z M53.62,412.66c0.748,1.621,0.035,3.539-1.584,4.284
	c-0.438,0.202-0.896,0.297-1.347,0.297c-1.224,0-2.394-0.697-2.937-1.88c-1.83-3.981-3.568-8.016-5.208-12.095
	c-0.666-1.656,0.136-3.536,1.792-4.202c1.647-0.659,3.536,0.132,4.202,1.792C50.14,404.839,51.834,408.773,53.62,412.66z
	 M72.198,446.509c0.968,1.498,0.539,3.499-0.959,4.467c-0.543,0.35-1.151,0.517-1.751,0.517c-1.06,0-2.098-0.521-2.716-1.476
	c-2.382-3.688-4.678-7.436-6.883-11.237c-0.896-1.543-0.369-3.521,1.174-4.417c1.552-0.896,3.521-0.366,4.417,1.174
	C67.633,439.25,69.873,442.91,72.198,446.509z M59.068,176.163c-1.965,3.82-3.849,7.688-5.644,11.609
	c-0.543,1.186-1.713,1.886-2.94,1.886c-0.448,0-0.905-0.095-1.341-0.293c-1.622-0.741-2.335-2.659-1.593-4.281
	c1.833-4.01,3.76-7.972,5.776-11.881c0.814-1.587,2.767-2.215,4.35-1.391C59.264,172.63,59.885,174.577,59.068,176.163z
	 M40.074,376.526c0.505,1.713-0.473,3.508-2.183,4.013c-0.306,0.092-0.612,0.133-0.915,0.133c-1.397,0-2.685-0.909-3.098-2.315
	c-1.243-4.208-2.385-8.458-3.429-12.742c-0.423-1.732,0.64-3.48,2.376-3.902c1.722-0.429,3.48,0.644,3.902,2.375
	C37.746,368.27,38.862,372.419,40.074,376.526z M189.119,550.749c-0.543,1.183-1.716,1.883-2.94,1.883
	c-0.448,0-0.905-0.095-1.344-0.293c-4.01-1.839-7.972-3.77-11.874-5.786c-1.587-0.82-2.205-2.77-1.388-4.353
	c0.82-1.584,2.77-2.199,4.354-1.388c3.814,1.972,7.682,3.858,11.603,5.653C189.151,547.21,189.864,549.125,189.119,550.749z
	 M517.556,128.092c1.107,1.401,0.871,3.432-0.527,4.539c-0.593,0.47-1.303,0.697-2.003,0.697c-0.953,0-1.899-0.419-2.536-1.224
	c-2.666-3.369-5.407-6.672-8.231-9.909c-1.17-1.344-1.032-3.385,0.312-4.558c1.341-1.17,3.379-1.035,4.559,0.312
	C512.016,121.262,514.827,124.647,517.556,128.092z M539.837,160.75c0.896,1.539,0.375,3.517-1.167,4.417
	c-0.511,0.296-1.069,0.438-1.622,0.438c-1.114,0-2.196-0.574-2.795-1.606c-2.161-3.71-4.407-7.363-6.738-10.959
	c-0.972-1.498-0.546-3.499,0.953-4.467c1.498-0.975,3.499-0.543,4.467,0.953C535.323,153.21,537.626,156.951,539.837,160.75z
	 M533.771,449.181c-2.372,3.71-4.836,7.36-7.382,10.95c-0.631,0.887-1.625,1.36-2.637,1.36c-0.647,0-1.3-0.192-1.867-0.596
	c-1.454-1.032-1.795-3.051-0.763-4.505c2.489-3.502,4.89-7.07,7.212-10.691c0.956-1.502,2.953-1.95,4.461-0.978
	C534.294,445.683,534.733,447.68,533.771,449.181z M490.88,98.905c1.293,1.227,1.347,3.271,0.117,4.565
	c-0.634,0.669-1.486,1.006-2.341,1.006c-0.798,0-1.599-0.293-2.224-0.89c-3.117-2.956-6.303-5.842-9.552-8.65
	c-1.35-1.167-1.502-3.205-0.334-4.555c1.173-1.356,3.211-1.499,4.555-0.334C484.432,92.924,487.694,95.874,490.88,98.905z
	 M482.561,504.391c1.173,1.344,1.038,3.385-0.306,4.559c-3.312,2.893-6.691,5.707-10.136,8.439c-0.593,0.47-1.303,0.697-2.003,0.697
	c-0.953,0-1.896-0.419-2.536-1.224c-1.107-1.398-0.871-3.429,0.527-4.539c3.363-2.663,6.666-5.414,9.896-8.237
	C479.34,502.905,481.387,503.051,482.561,504.391z M509.795,476.337c1.35,1.167,1.502,3.205,0.337,4.559
	c-2.874,3.331-5.823,6.596-8.849,9.786c-0.637,0.669-1.489,1.006-2.344,1.006c-0.798,0-1.599-0.293-2.224-0.886
	c-1.293-1.227-1.347-3.275-0.12-4.568c2.956-3.114,5.836-6.303,8.641-9.559C506.404,475.318,508.439,475.179,509.795,476.337z
	 M574.706,338.623c-0.612,4.372-1.328,8.713-2.139,13.016c-0.29,1.549-1.647,2.631-3.171,2.631c-0.199,0-0.401-0.019-0.602-0.057
	c-1.751-0.328-2.906-2.019-2.574-3.773c0.792-4.202,1.489-8.442,2.088-12.713c0.249-1.767,1.883-3.013,3.647-2.751
	C573.722,335.222,574.955,336.856,574.706,338.623z M577.387,299.962c0,4.18-0.091,8.3-0.271,12.398
	c-0.076,1.732-1.505,3.088-3.224,3.088c-0.047,0-0.095,0-0.145-0.003c-1.782-0.079-3.164-1.587-3.085-3.369
	c0.174-4.003,0.265-8.029,0.265-12.076l-0.003-0.814c0-1.786,1.445-3.23,3.23-3.23s3.23,1.445,3.23,3.23L577.387,299.962z
	 M555.469,200.429c-0.397,0.161-0.811,0.237-1.214,0.237c-1.274,0-2.486-0.76-2.994-2.016c-1.612-3.978-3.316-7.915-5.107-11.798
	c-0.748-1.618-0.041-3.54,1.581-4.287c1.628-0.745,3.539-0.041,4.287,1.581c1.836,3.978,3.577,8.003,5.227,12.076
	C557.917,197.877,557.122,199.76,555.469,200.429z M552.68,414.42c-1.827,4.016-3.745,7.978-5.751,11.89
	c-0.571,1.117-1.703,1.757-2.877,1.757c-0.495,0-1-0.113-1.47-0.356c-1.59-0.814-2.215-2.76-1.401-4.347
	c1.962-3.823,3.836-7.697,5.618-11.619c0.735-1.618,2.637-2.353,4.278-1.603C552.702,410.88,553.418,412.795,552.68,414.42z
	 M566.431,377.293c-1.23,4.246-2.562,8.451-3.994,12.612c-0.461,1.338-1.713,2.18-3.054,2.18c-0.347,0-0.703-0.057-1.051-0.177
	c-1.688-0.581-2.584-2.417-2.003-4.104c1.394-4.06,2.694-8.164,3.899-12.309c0.498-1.713,2.284-2.713,4-2.202
	C565.945,373.788,566.93,375.58,566.431,377.293z M304.319,574.157c0,1.786-1.445,3.23-3.23,3.23l-1.057,0.003
	c-4.448,0-8.842-0.104-13.212-0.309c-1.782-0.085-3.158-1.596-3.076-3.379c0.082-1.779,1.599-3.183,3.379-3.076
	c4.268,0.199,8.562,0.303,12.881,0.303l1.085-0.003C302.874,570.927,304.319,572.371,304.319,574.157z M343.254,570.772
	c0.262,1.763-0.959,3.407-2.726,3.666c-4.331,0.637-8.697,1.174-13.092,1.606c-0.107,0.01-0.215,0.016-0.319,0.016
	c-1.644,0-3.047-1.246-3.211-2.915c-0.173-1.776,1.123-3.357,2.899-3.53c4.287-0.42,8.552-0.943,12.783-1.568
	C341.367,567.753,342.995,569.012,343.254,570.772z M354.481,31.26c-0.293,1.549-1.65,2.628-3.17,2.628
	c-0.199,0-0.401-0.019-0.606-0.057c-4.205-0.798-8.442-1.498-12.713-2.101c-1.767-0.249-2.997-1.883-2.748-3.65
	c0.249-1.764,1.845-3.016,3.65-2.748c4.372,0.615,8.71,1.334,13.016,2.151C353.664,27.815,354.813,29.506,354.481,31.26z
	 M315.713,26.269c-0.079,1.732-1.508,3.085-3.224,3.085c-0.05,0-0.098,0-0.148-0.003c-4.089-0.183-8.202-0.278-12.338-0.278
	c-1.786,0-3.502-1.445-3.502-3.23c0-1.786,1.17-3.23,2.956-3.23h0.546c4.23,0,8.445,0.095,12.628,0.284
	C314.414,22.976,315.792,24.487,315.713,26.269z M460.352,73.769c1.451,1.032,1.792,3.051,0.757,4.505
	c-0.628,0.883-1.625,1.356-2.634,1.356c-0.647,0-1.303-0.193-1.871-0.599c-3.499-2.489-7.063-4.896-10.685-7.218
	c-1.502-0.962-1.937-2.962-0.975-4.464c0.959-1.505,2.959-1.943,4.464-0.975C453.118,68.753,456.765,71.217,460.352,73.769z
	 M276.633,26.812c0.173,1.776-1.129,3.357-2.902,3.527c-4.29,0.416-8.555,0.931-12.789,1.543c-0.158,0.025-0.312,0.035-0.467,0.035
	c-1.581,0-2.959-1.158-3.193-2.767c-0.259-1.767,0.965-3.404,2.732-3.659c4.335-0.631,8.701-1.158,13.092-1.58
	C274.923,23.764,276.463,25.035,276.633,26.812z M381.315,561.87c0.511,1.71-0.461,3.511-2.17,4.019
	c-4.205,1.256-8.451,2.41-12.732,3.467c-0.259,0.063-0.521,0.095-0.776,0.095c-1.451,0-2.77-0.984-3.133-2.457
	c-0.429-1.732,0.631-3.483,2.363-3.909c4.18-1.032,8.325-2.161,12.429-3.385C378.999,559.185,380.807,560.16,381.315,561.87z
	 M427.947,57.551c-0.571,1.114-1.704,1.751-2.874,1.751c-0.498,0-1.003-0.114-1.476-0.36c-3.817-1.965-7.688-3.842-11.609-5.628
	c-1.625-0.741-2.341-2.656-1.603-4.278c0.738-1.625,2.666-2.344,4.278-1.603c4.016,1.83,7.981,3.751,11.893,5.767
	C428.143,54.018,428.764,55.964,427.947,57.551z M451.655,528.323c0.972,1.495,0.546,3.499-0.95,4.47
	c-3.681,2.388-7.42,4.694-11.215,6.912c-0.514,0.3-1.076,0.442-1.628,0.442c-1.111,0-2.193-0.571-2.792-1.599
	c-0.899-1.539-0.382-3.521,1.158-4.42c3.707-2.167,7.363-4.417,10.956-6.754C448.677,526.401,450.683,526.827,451.655,528.323z
	 M417.679,547.623c0.751,1.622,0.044,3.539-1.574,4.287c-3.978,1.839-8.003,3.59-12.079,5.243c-0.397,0.161-0.811,0.237-1.215,0.237
	c-1.275,0-2.483-0.76-2.994-2.016c-0.669-1.653,0.126-3.536,1.779-4.208c3.981-1.615,7.912-3.322,11.795-5.117
	C415.016,545.285,416.931,546.008,417.679,547.623z M392.164,41.755c-0.461,1.341-1.713,2.18-3.054,2.18
	c-0.347,0-0.703-0.057-1.05-0.177c-4.06-1.394-8.164-2.704-12.313-3.912c-1.713-0.498-2.694-2.293-2.196-4.007
	c0.499-1.71,2.268-2.7,4.007-2.196c4.243,1.24,8.448,2.574,12.603,4.006C391.848,38.231,392.744,40.068,392.164,41.755z" fill="rgba(186, 209, 197, 1.0)"></path></g></g><g><g data-element="icon" transform="scale(0.15) translate(1453.9503300984702 1133.3333333333335)"><path id="color_x5F_2_11_" fill="rgba(186, 209, 197, 1.0)" d="M488.035,261.281c3.68-61.335-39.236-91.106-75.594-107.01l-62.409,103.029h91.931    l-177.66,248.647l-28.864-25.739L189.948,600l125.736-48.234l-28.198-25.145l108.722-75.626c0,0,47.234,0,80.787,0    c56.428,0,88.818-55.01,89.242-97.712C566.786,298.082,523.916,263.121,488.035,261.281z"></path> <path id="color_x5F_1_15_" fill="rgba(186, 209, 197, 1.0)" d="M425.493,119.719L471.172,0L345.36,48.035l32.078,28.696l-56.589,32.344    c-58.881-34.348-131.604-16.557-171.995,25.243c-36.467,37.74-41.708,104.269-23.307,131.257    c-35.574-6.133-91.789,34.293-91.789,95.628c0,47.354,50.311,89.793,93.015,89.793s128.803,0,128.803,0l70.535-140.033H211.979    L395.31,92.719L425.493,119.719z"></path></g><text transform="translate(317.15625 243)" fill="rgba(186, 209, 197, 1.0)" font-family="JP Rampart One" font-size="64" data-element="company-name" dx="0 0">CS</text></g></g></svg>